<svg width="312" height="60" viewBox="0 0 312 60" fill="none" xmlns="http://www.w3.org/2000/svg">
<rect width="312" height="60" rx="15" fill="black"/>
<path d="M82.9673 36.924C82.6195 37.7275 82.2078 38.4672 81.7308 39.1472C81.0805 40.0743 80.5481 40.716 80.1378 41.0724C79.5018 41.6573 78.8204 41.9568 78.0906 41.9739C77.5667 41.9739 76.935 41.8248 76.1996 41.5224C75.4617 41.2214 74.7837 41.0724 74.1637 41.0724C73.5135 41.0724 72.8161 41.2214 72.0702 41.5224C71.3231 41.8248 70.7213 41.9824 70.2612 41.998C69.5614 42.0278 68.8639 41.7197 68.1677 41.0724C67.7233 40.6848 67.1675 40.0204 66.5017 39.0791C65.7873 38.0739 65.1999 36.9084 64.7398 35.5795C64.247 34.1442 64 32.7543 64 31.4087C64 29.8673 64.3331 28.5379 65.0002 27.4238C65.5245 26.529 66.222 25.8231 67.095 25.3049C67.9679 24.7867 68.9112 24.5227 69.927 24.5058C70.4828 24.5058 71.2117 24.6777 72.1175 25.0156C73.0207 25.3546 73.6006 25.5265 73.8549 25.5265C74.045 25.5265 74.6893 25.3255 75.7815 24.9247C76.8143 24.5531 77.686 24.3992 78.4001 24.4598C80.3352 24.6159 81.789 25.3788 82.7558 26.753C81.0252 27.8016 80.1691 29.2703 80.1861 31.1544C80.2017 32.622 80.7341 33.8432 81.7804 34.8129C82.2546 35.2629 82.7842 35.6107 83.3734 35.8578C83.2456 36.2283 83.1107 36.5832 82.9673 36.924V36.924ZM78.5293 19.4601C78.5293 20.6104 78.1091 21.6844 77.2714 22.6785C76.2606 23.8602 75.038 24.5431 73.7121 24.4354C73.6952 24.2974 73.6854 24.1521 73.6854 23.9995C73.6854 22.8953 74.1661 21.7135 75.0198 20.7472C75.446 20.258 75.988 19.8512 76.6454 19.5267C77.3013 19.2071 77.9217 19.0303 78.5052 19C78.5222 19.1538 78.5293 19.3076 78.5293 19.4601V19.4601Z" fill="white"/>
<path d="M109.826 38.5L108.526 34.72H103.146L101.866 38.5H99.1465L104.386 24.16H107.306L112.546 38.5H109.826ZM106.626 28.84C106.573 28.6533 106.493 28.4 106.386 28.08C106.28 27.76 106.173 27.4333 106.066 27.1C105.973 26.7533 105.9 26.4667 105.846 26.24C105.78 26.5067 105.693 26.8133 105.586 27.16C105.493 27.5067 105.4 27.8333 105.306 28.14C105.226 28.4467 105.16 28.68 105.106 28.84L103.846 32.52H107.866L106.626 28.84ZM119.884 27.46C121.151 27.46 122.171 27.9333 122.944 28.88C123.718 29.8133 124.104 31.2067 124.104 33.06C124.104 34.2867 123.924 35.32 123.564 36.16C123.204 37 122.704 37.6333 122.064 38.06C121.424 38.4867 120.678 38.7 119.824 38.7C119.304 38.7 118.844 38.6333 118.444 38.5C118.044 38.3533 117.704 38.1733 117.424 37.96C117.144 37.7333 116.904 37.4933 116.704 37.24H116.544C116.598 37.48 116.638 37.7533 116.664 38.06C116.691 38.3533 116.704 38.6333 116.704 38.9V43.3H114.184V27.66H116.224L116.584 29.1H116.704C116.904 28.7933 117.144 28.52 117.424 28.28C117.718 28.0267 118.064 27.8267 118.464 27.68C118.878 27.5333 119.351 27.46 119.884 27.46ZM119.164 29.5C118.578 29.5 118.104 29.62 117.744 29.86C117.384 30.0867 117.124 30.44 116.964 30.92C116.804 31.4 116.718 32 116.704 32.72V33.04C116.704 33.8133 116.778 34.4667 116.924 35C117.084 35.5333 117.344 35.94 117.704 36.22C118.078 36.5 118.578 36.64 119.204 36.64C119.738 36.64 120.171 36.4933 120.504 36.2C120.851 35.9067 121.104 35.4933 121.264 34.96C121.438 34.4133 121.524 33.7667 121.524 33.02C121.524 31.9 121.331 31.0333 120.944 30.42C120.571 29.8067 119.978 29.5 119.164 29.5ZM132.404 27.46C133.671 27.46 134.691 27.9333 135.464 28.88C136.237 29.8133 136.624 31.2067 136.624 33.06C136.624 34.2867 136.444 35.32 136.084 36.16C135.724 37 135.224 37.6333 134.584 38.06C133.944 38.4867 133.197 38.7 132.344 38.7C131.824 38.7 131.364 38.6333 130.964 38.5C130.564 38.3533 130.224 38.1733 129.944 37.96C129.664 37.7333 129.424 37.4933 129.224 37.24H129.064C129.117 37.48 129.157 37.7533 129.184 38.06C129.211 38.3533 129.224 38.6333 129.224 38.9V43.3H126.704V27.66H128.744L129.104 29.1H129.224C129.424 28.7933 129.664 28.52 129.944 28.28C130.237 28.0267 130.584 27.8267 130.984 27.68C131.397 27.5333 131.871 27.46 132.404 27.46ZM131.684 29.5C131.097 29.5 130.624 29.62 130.264 29.86C129.904 30.0867 129.644 30.44 129.484 30.92C129.324 31.4 129.237 32 129.224 32.72V33.04C129.224 33.8133 129.297 34.4667 129.444 35C129.604 35.5333 129.864 35.94 130.224 36.22C130.597 36.5 131.097 36.64 131.724 36.64C132.257 36.64 132.691 36.4933 133.024 36.2C133.371 35.9067 133.624 35.4933 133.784 34.96C133.957 34.4133 134.044 33.7667 134.044 33.02C134.044 31.9 133.851 31.0333 133.464 30.42C133.091 29.8067 132.497 29.5 131.684 29.5ZM141.744 38.5H139.224V23.3H141.744V38.5ZM149.326 27.46C150.299 27.46 151.132 27.66 151.826 28.06C152.532 28.4467 153.079 29.0067 153.466 29.74C153.852 30.46 154.046 31.34 154.046 32.38V33.66H146.886C146.912 34.6467 147.186 35.4133 147.706 35.96C148.226 36.4933 148.946 36.76 149.866 36.76C150.572 36.76 151.199 36.6933 151.746 36.56C152.306 36.4133 152.879 36.2067 153.466 35.94V37.96C152.932 38.2133 152.379 38.4 151.806 38.52C151.232 38.64 150.546 38.7 149.746 38.7C148.692 38.7 147.752 38.5 146.926 38.1C146.112 37.6867 145.472 37.0667 145.006 36.24C144.552 35.4133 144.326 34.3867 144.326 33.16C144.326 31.92 144.532 30.88 144.946 30.04C145.372 29.1867 145.959 28.5467 146.706 28.12C147.452 27.68 148.326 27.46 149.326 27.46ZM149.326 29.32C148.659 29.32 148.112 29.54 147.686 29.98C147.272 30.4067 147.026 31.0467 146.946 31.9H151.606C151.606 31.3933 151.519 30.9467 151.346 30.56C151.186 30.1733 150.939 29.8733 150.606 29.66C150.272 29.4333 149.846 29.32 149.326 29.32ZM155.787 36.08H172.547V38.24H155.787V36.08ZM162.807 32.58H165.467V36.96H162.807V32.58ZM157.667 22.96H170.667V29.12H160.347V32.24H157.707V27.04H168.027V25.06H157.667V22.96ZM157.707 31.18H171.087V33.32H157.707V31.18ZM179.381 36.08H196.141V38.24H179.381V36.08ZM186.401 32.58H189.061V36.96H186.401V32.58ZM181.261 22.96H194.261V29.12H183.941V32.24H181.301V27.04H191.621V25.06H181.261V22.96ZM181.301 31.18H194.681V33.32H181.301V31.18ZM199.479 23.46H211.219V25.56H199.479V23.46ZM197.779 35.7H214.519V37.86H197.779V35.7ZM209.819 23.46H212.459V25.66C212.459 28.26 212.459 30.78 211.799 34.58L209.139 34.36C209.819 30.8 209.819 28.16 209.819 25.66V23.46ZM228.877 21.78H231.557V35.08H228.877V21.78ZM219.217 37.84H232.017V39.96H219.217V37.84ZM219.217 33.74H221.877V38.7H219.217V33.74ZM221.477 22.94C224.317 22.94 226.497 24.9 226.497 27.64C226.497 30.36 224.317 32.34 221.477 32.34C218.637 32.34 216.437 30.36 216.437 27.64C216.437 24.9 218.637 22.94 221.477 22.94ZM221.477 25.24C220.097 25.24 219.037 26.12 219.037 27.64C219.037 29.14 220.097 30.02 221.477 30.02C222.837 30.02 223.897 29.14 223.897 27.64C223.897 26.12 222.837 25.24 221.477 25.24Z" fill="white"/>
</svg>
