<svg width="312" height="60" viewBox="0 0 312 60" fill="none" xmlns="http://www.w3.org/2000/svg">
<rect width="312" height="60" rx="15" fill="#4285F4"/>
<path fill-rule="evenodd" clip-rule="evenodd" d="M74.54 30.7614C74.54 29.9459 74.4668 29.1618 74.3309 28.4091H63.5V32.8575H69.6891C69.4225 34.295 68.6123 35.513 67.3943 36.3284V39.2139H71.1109C73.2855 37.2118 74.54 34.2636 74.54 30.7614Z" fill="white"/>
<path fill-rule="evenodd" clip-rule="evenodd" d="M63.4999 41.9998C66.6049 41.9998 69.2081 40.9701 71.1108 39.2137L67.3943 36.3283C66.3645 37.0183 65.0472 37.426 63.4999 37.426C60.5047 37.426 57.9695 35.403 57.0652 32.6848H53.2231V35.6644C55.1154 39.4228 59.0045 41.9998 63.4999 41.9998Z" fill="white"/>
<path fill-rule="evenodd" clip-rule="evenodd" d="M57.0652 32.6851C56.8352 31.9951 56.7045 31.258 56.7045 30.5001C56.7045 29.7421 56.8352 29.0051 57.0652 28.3151V25.3355H53.2232C52.4443 26.888 52 28.6444 52 30.5001C52 32.3557 52.4443 34.1121 53.2232 35.6646L57.0652 32.6851Z" fill="white"/>
<path fill-rule="evenodd" clip-rule="evenodd" d="M63.4999 23.5739C65.1883 23.5739 66.7043 24.1541 67.8961 25.2936L71.1945 21.9952C69.2029 20.1395 66.5997 19 63.4999 19C59.0045 19 55.1154 21.577 53.2231 25.3355L57.0652 28.315C57.9695 25.5968 60.5047 23.5739 63.4999 23.5739Z" fill="white"/>
<path d="M98.56 30.66H103.96V37.92C103.2 38.1733 102.42 38.3667 101.62 38.5C100.82 38.6333 99.9133 38.7 98.9 38.7C97.46 38.7 96.24 38.4133 95.24 37.84C94.24 37.2667 93.48 36.4333 92.96 35.34C92.44 34.2467 92.18 32.9133 92.18 31.34C92.18 29.8467 92.4733 28.5533 93.06 27.46C93.6467 26.3667 94.4867 25.52 95.58 24.92C96.6867 24.32 98.0333 24.02 99.62 24.02C100.393 24.02 101.14 24.1 101.86 24.26C102.593 24.4067 103.26 24.6133 103.86 24.88L102.98 26.98C102.527 26.7533 102 26.5667 101.4 26.42C100.813 26.26 100.2 26.18 99.56 26.18C98.5867 26.18 97.7467 26.3933 97.04 26.82C96.3333 27.2467 95.7867 27.8533 95.4 28.64C95.0267 29.4133 94.84 30.3267 94.84 31.38C94.84 32.3933 94.9867 33.2933 95.28 34.08C95.5733 34.8533 96.04 35.46 96.68 35.9C97.32 36.3267 98.1533 36.54 99.18 36.54C99.5267 36.54 99.8267 36.5267 100.08 36.5C100.347 36.4733 100.587 36.44 100.8 36.4C101.027 36.36 101.24 36.32 101.44 36.28V32.84H98.56V30.66ZM116.812 33.06C116.812 33.9667 116.692 34.7667 116.452 35.46C116.212 36.1533 115.865 36.7467 115.412 37.24C114.972 37.72 114.425 38.0867 113.772 38.34C113.132 38.58 112.418 38.7 111.632 38.7C110.885 38.7 110.198 38.58 109.572 38.34C108.945 38.0867 108.398 37.72 107.932 37.24C107.478 36.7467 107.125 36.1533 106.872 35.46C106.618 34.7667 106.492 33.9667 106.492 33.06C106.492 31.86 106.698 30.8467 107.112 30.02C107.525 29.18 108.118 28.5467 108.892 28.12C109.678 27.68 110.605 27.46 111.672 27.46C112.685 27.46 113.572 27.68 114.332 28.12C115.105 28.5467 115.712 29.18 116.152 30.02C116.592 30.8467 116.812 31.86 116.812 33.06ZM109.072 33.06C109.072 33.82 109.158 34.4733 109.332 35.02C109.518 35.5533 109.798 35.96 110.172 36.24C110.558 36.52 111.052 36.66 111.652 36.66C112.265 36.66 112.758 36.52 113.132 36.24C113.518 35.96 113.798 35.5533 113.972 35.02C114.145 34.4733 114.232 33.82 114.232 33.06C114.232 32.2867 114.138 31.64 113.952 31.12C113.778 30.5867 113.498 30.1867 113.112 29.92C112.738 29.64 112.252 29.5 111.652 29.5C110.745 29.5 110.085 29.8067 109.672 30.42C109.272 31.0333 109.072 31.9133 109.072 33.06ZM129.097 33.06C129.097 33.9667 128.977 34.7667 128.737 35.46C128.497 36.1533 128.15 36.7467 127.697 37.24C127.257 37.72 126.71 38.0867 126.057 38.34C125.417 38.58 124.704 38.7 123.917 38.7C123.17 38.7 122.484 38.58 121.857 38.34C121.23 38.0867 120.684 37.72 120.217 37.24C119.764 36.7467 119.41 36.1533 119.157 35.46C118.904 34.7667 118.777 33.9667 118.777 33.06C118.777 31.86 118.984 30.8467 119.397 30.02C119.81 29.18 120.404 28.5467 121.177 28.12C121.964 27.68 122.89 27.46 123.957 27.46C124.97 27.46 125.857 27.68 126.617 28.12C127.39 28.5467 127.997 29.18 128.437 30.02C128.877 30.8467 129.097 31.86 129.097 33.06ZM121.357 33.06C121.357 33.82 121.444 34.4733 121.617 35.02C121.804 35.5533 122.084 35.96 122.457 36.24C122.844 36.52 123.337 36.66 123.937 36.66C124.55 36.66 125.044 36.52 125.417 36.24C125.804 35.96 126.084 35.5533 126.257 35.02C126.43 34.4733 126.517 33.82 126.517 33.06C126.517 32.2867 126.424 31.64 126.237 31.12C126.064 30.5867 125.784 30.1867 125.397 29.92C125.024 29.64 124.537 29.5 123.937 29.5C123.03 29.5 122.37 29.8067 121.957 30.42C121.557 31.0333 121.357 31.9133 121.357 33.06ZM135.342 27.46C136.022 27.46 136.635 27.5933 137.182 27.86C137.729 28.1267 138.189 28.5267 138.562 29.06H138.662L138.902 27.66H141.002V38.58C141.002 39.6067 140.809 40.4667 140.422 41.16C140.035 41.8667 139.455 42.4 138.682 42.76C137.909 43.12 136.942 43.3 135.782 43.3C135.009 43.3 134.295 43.2467 133.642 43.14C132.989 43.0467 132.369 42.88 131.782 42.64V40.56C132.195 40.7333 132.622 40.88 133.062 41C133.515 41.1333 133.982 41.2333 134.462 41.3C134.942 41.3667 135.435 41.4 135.942 41.4C136.769 41.4 137.395 41.1667 137.822 40.7C138.262 40.2333 138.482 39.5667 138.482 38.7V38.42C138.482 38.22 138.489 37.9867 138.502 37.72C138.529 37.4533 138.549 37.24 138.562 37.08H138.482C138.109 37.64 137.655 38.0533 137.122 38.32C136.589 38.5733 135.975 38.7 135.282 38.7C133.962 38.7 132.929 38.2067 132.182 37.22C131.435 36.2333 131.062 34.86 131.062 33.1C131.062 31.9133 131.229 30.9 131.562 30.06C131.909 29.22 132.402 28.58 133.042 28.14C133.682 27.6867 134.449 27.46 135.342 27.46ZM136.002 29.52C135.495 29.52 135.062 29.66 134.702 29.94C134.355 30.2067 134.089 30.6067 133.902 31.14C133.729 31.6733 133.642 32.34 133.642 33.14C133.642 34.3133 133.842 35.2 134.242 35.8C134.642 36.4 135.242 36.7 136.042 36.7C136.495 36.7 136.882 36.6467 137.202 36.54C137.522 36.42 137.782 36.2333 137.982 35.98C138.195 35.7133 138.355 35.38 138.462 34.98C138.569 34.5667 138.622 34.0733 138.622 33.5V33.12C138.622 32.2533 138.529 31.56 138.342 31.04C138.155 30.5067 137.869 30.12 137.482 29.88C137.109 29.64 136.615 29.52 136.002 29.52ZM146.742 38.5H144.222V23.3H146.742V38.5ZM154.324 27.46C155.297 27.46 156.13 27.66 156.824 28.06C157.53 28.4467 158.077 29.0067 158.464 29.74C158.85 30.46 159.044 31.34 159.044 32.38V33.66H151.884C151.91 34.6467 152.184 35.4133 152.704 35.96C153.224 36.4933 153.944 36.76 154.864 36.76C155.57 36.76 156.197 36.6933 156.744 36.56C157.304 36.4133 157.877 36.2067 158.464 35.94V37.96C157.93 38.2133 157.377 38.4 156.804 38.52C156.23 38.64 155.544 38.7 154.744 38.7C153.69 38.7 152.75 38.5 151.924 38.1C151.11 37.6867 150.47 37.0667 150.004 36.24C149.55 35.4133 149.324 34.3867 149.324 33.16C149.324 31.92 149.53 30.88 149.944 30.04C150.37 29.1867 150.957 28.5467 151.704 28.12C152.45 27.68 153.324 27.46 154.324 27.46ZM154.324 29.32C153.657 29.32 153.11 29.54 152.684 29.98C152.27 30.4067 152.024 31.0467 151.944 31.9H156.604C156.604 31.3933 156.517 30.9467 156.344 30.56C156.184 30.1733 155.937 29.8733 155.604 29.66C155.27 29.4333 154.844 29.32 154.324 29.32ZM160.785 36.08H177.545V38.24H160.785V36.08ZM167.805 32.58H170.465V36.96H167.805V32.58ZM162.665 22.96H175.665V29.12H165.345V32.24H162.705V27.04H173.025V25.06H162.665V22.96ZM162.705 31.18H176.085V33.32H162.705V31.18ZM184.379 36.08H201.139V38.24H184.379V36.08ZM191.399 32.58H194.059V36.96H191.399V32.58ZM186.259 22.96H199.259V29.12H188.939V32.24H186.299V27.04H196.619V25.06H186.259V22.96ZM186.299 31.18H199.679V33.32H186.299V31.18ZM204.477 23.46H216.217V25.56H204.477V23.46ZM202.777 35.7H219.517V37.86H202.777V35.7ZM214.817 23.46H217.457V25.66C217.457 28.26 217.457 30.78 216.797 34.58L214.137 34.36C214.817 30.8 214.817 28.16 214.817 25.66V23.46ZM233.875 21.78H236.555V35.08H233.875V21.78ZM224.215 37.84H237.015V39.96H224.215V37.84ZM224.215 33.74H226.875V38.7H224.215V33.74ZM226.475 22.94C229.315 22.94 231.495 24.9 231.495 27.64C231.495 30.36 229.315 32.34 226.475 32.34C223.635 32.34 221.435 30.36 221.435 27.64C221.435 24.9 223.635 22.94 226.475 22.94ZM226.475 25.24C225.095 25.24 224.035 26.12 224.035 27.64C224.035 29.14 225.095 30.02 226.475 30.02C227.835 30.02 228.895 29.14 228.895 27.64C228.895 26.12 227.835 25.24 226.475 25.24Z" fill="white"/>
</svg>
