<svg width="312" height="60" viewBox="0 0 312 60" fill="none" xmlns="http://www.w3.org/2000/svg">
<rect width="312" height="60" rx="15" fill="#FEE500"/>
<g clip-path="url(#clip0_14_91)">
<path fill-rule="evenodd" clip-rule="evenodd" d="M70 21.6C65.0292 21.6 61 24.713 61 28.5523C61 30.94 62.5584 33.045 64.9316 34.297L63.9331 37.9445C63.8448 38.2668 64.2134 38.5237 64.4965 38.3369L68.8734 35.4482C69.2427 35.4839 69.6181 35.5047 70 35.5047C74.9705 35.5047 79 32.3918 79 28.5523C79 24.713 74.9705 21.6 70 21.6" fill="black"/>
</g>
<path d="M114.8 23.04H117.4C117.4 28.76 116.04 33.52 109.14 37.02L107.72 35C113.48 32.1 114.8 28.56 114.8 23.36V23.04ZM108.86 23.04H116.38V25.14H108.86V23.04ZM114.86 27.58V29.62L108.22 30.26L107.9 27.98L114.86 27.58ZM119.64 21.24H122.32V39.76H119.64V21.24ZM121.62 28.32H124.88V30.5H121.62V28.32ZM133.198 23.04H135.798C135.798 28.76 134.438 33.52 127.538 37.02L126.118 35C131.878 32.1 133.198 28.56 133.198 23.36V23.04ZM127.258 23.04H134.778V25.14H127.258V23.04ZM133.258 27.58V29.62L126.618 30.26L126.298 27.98L133.258 27.58ZM138.038 21.24H140.718V39.76H138.038V21.24ZM140.018 28.32H143.278V30.5H140.018V28.32ZM151.637 31.68H154.297V35.9H151.637V31.68ZM152.977 22.2C156.937 22.2 159.897 24.22 159.897 27.3C159.897 30.42 156.937 32.42 152.977 32.42C149.017 32.42 146.057 30.42 146.057 27.3C146.057 24.22 149.017 22.2 152.977 22.2ZM152.977 24.3C150.437 24.3 148.677 25.42 148.677 27.3C148.677 29.22 150.437 30.32 152.977 30.32C155.517 30.32 157.277 29.22 157.277 27.3C157.277 25.42 155.517 24.3 152.977 24.3ZM144.617 35.48H161.377V37.64H144.617V35.48ZM167.898 35.58H184.658V37.74H167.898V35.58ZM174.918 32.08H177.578V36.46H174.918V32.08ZM169.778 22.46H182.778V28.62H172.458V31.74H169.818V26.54H180.138V24.56H169.778V22.46ZM169.818 30.68H183.198V32.82H169.818V30.68ZM187.997 22.96H199.737V25.06H187.997V22.96ZM186.297 35.2H203.037V37.36H186.297V35.2ZM198.337 22.96H200.977V25.16C200.977 27.76 200.977 30.28 200.317 34.08L197.657 33.86C198.337 30.3 198.337 27.66 198.337 25.16V22.96ZM217.395 21.28H220.075V34.58H217.395V21.28ZM207.735 37.34H220.535V39.46H207.735V37.34ZM207.735 33.24H210.395V38.2H207.735V33.24ZM209.995 22.44C212.835 22.44 215.015 24.4 215.015 27.14C215.015 29.86 212.835 31.84 209.995 31.84C207.155 31.84 204.955 29.86 204.955 27.14C204.955 24.4 207.155 22.44 209.995 22.44ZM209.995 24.74C208.615 24.74 207.555 25.62 207.555 27.14C207.555 28.64 208.615 29.52 209.995 29.52C211.355 29.52 212.415 28.64 212.415 27.14C212.415 25.62 211.355 24.74 209.995 24.74Z" fill="black" fill-opacity="0.85"/>
<defs>
<clipPath id="clip0_14_91">
<rect width="17.9999" height="18" fill="white" transform="translate(61 21)"/>
</clipPath>
</defs>
</svg>
