<svg width="312" height="60" viewBox="0 0 312 60" fill="none" xmlns="http://www.w3.org/2000/svg">
<rect width="312" height="60" rx="15" fill="#03C75A"/>
<g clip-path="url(#clip0_14_153)">
<path d="M93.3491 30.5627L87.4169 22H82.5V38H87.6509V29.436L93.5831 38H98.5V22H93.3491V30.5627Z" fill="white"/>
</g>
<path d="M115 23.02H117.64V33.78H115V23.02ZM115 33.1H116.3C118.54 33.1 120.4 33.02 122.54 32.58L122.88 34.8C120.66 35.28 118.66 35.36 116.3 35.36H115V33.1ZM127.72 21.26H130.26V39.78H127.72V21.26ZM120.16 27.1H124.38V29.24H120.16V27.1ZM123.8 21.58H126.28V38.96H123.8V21.58ZM145.398 21.24H148.078V39.82H145.398V21.24ZM138.098 22.54C140.898 22.54 142.958 25.1 142.958 29.14C142.958 33.22 140.898 35.78 138.098 35.78C135.298 35.78 133.238 33.22 133.238 29.14C133.238 25.1 135.298 22.54 138.098 22.54ZM138.098 24.96C136.718 24.96 135.778 26.42 135.778 29.14C135.778 31.9 136.718 33.38 138.098 33.38C139.478 33.38 140.398 31.9 140.398 29.14C140.398 26.42 139.478 24.96 138.098 24.96ZM163.997 21.24H166.637V39.82H163.997V21.24ZM159.797 27.76H164.757V29.9H159.797V27.76ZM151.777 22.7H154.417V27.18H158.057V22.7H160.677V35.46H151.777V22.7ZM154.417 29.24V33.32H158.057V29.24H154.417ZM174.711 35.58H191.471V37.74H174.711V35.58ZM181.731 32.08H184.391V36.46H181.731V32.08ZM176.591 22.46H189.591V28.62H179.271V31.74H176.631V26.54H186.951V24.56H176.591V22.46ZM176.631 30.68H190.011V32.82H176.631V30.68ZM194.809 22.96H206.549V25.06H194.809V22.96ZM193.109 35.2H209.849V37.36H193.109V35.2ZM205.149 22.96H207.789V25.16C207.789 27.76 207.789 30.28 207.129 34.08L204.469 33.86C205.149 30.3 205.149 27.66 205.149 25.16V22.96ZM224.208 21.28H226.888V34.58H224.208V21.28ZM214.548 37.34H227.348V39.46H214.548V37.34ZM214.548 33.24H217.208V38.2H214.548V33.24ZM216.808 22.44C219.648 22.44 221.828 24.4 221.828 27.14C221.828 29.86 219.648 31.84 216.808 31.84C213.968 31.84 211.768 29.86 211.768 27.14C211.768 24.4 213.968 22.44 216.808 22.44ZM216.808 24.74C215.428 24.74 214.368 25.62 214.368 27.14C214.368 28.64 215.428 29.52 216.808 29.52C218.168 29.52 219.228 28.64 219.228 27.14C219.228 25.62 218.168 24.74 216.808 24.74Z" fill="white"/>
<defs>
<clipPath id="clip0_14_153">
<rect width="16" height="16" fill="white" transform="translate(82.5 22)"/>
</clipPath>
</defs>
</svg>
